PathFileType	4	(X/Y/Z)	 New Session 107.trc
DataRate	CameraRate	NumFrames	NumMarkers	Units	OrigDataRate	OrigDataStartFrame	OrigNumFrames
100	100	17	14	m	100	682	909
Frame#	Time	C7			T8			IJ			PX			AA			AC			AI			TS			SC			GH			LE			ME			US			RS			
		X1	Y1	Z1	X2	Y2	Z2	X3	Y3	Z3	X4	Y4	Z4	X5	Y5	Z5	X6	Y6	Z6	X7	Y7	Z7	X8	Y8	Z8	X9	Y9	Z9	X10	Y10	Z10	X11	Y11	Z11	X12	Y12	Z12	X13	Y13	Z13	X14	Y14	Z14	
682	6.8200	0.008352	0.108524	0.157820	0.010521	-0.100876	0.238123	-0.010603	-0.001405	-0.004489	-0.002327	-0.147178	-0.064701	0.204949	0.013477	0.141562	0.154598	0.052299	0.070449	0.090786	0.036193	0.200160	0.093964	-0.079732	0.237041	0.014505	0.007529	-0.000094	0.215553	0.029779	0.102870	0.365906	-0.201147	0.023676	0.302772	-0.275917	0.028029	0.356273	-0.299047	-0.243141	0.344187	-0.221390	-0.245430	
683	6.8300	0.008372	0.108506	0.157757	0.010515	-0.100891	0.238016	-0.010654	-0.001386	-0.004539	-0.002515	-0.147176	-0.064770	0.204912	0.013480	0.141376	0.154539	0.052231	0.070217	0.090834	0.036181	0.199988	0.093950	-0.079774	0.236936	0.014432	0.007516	-0.000181	0.215503	0.029779	0.102699	0.366349	-0.201554	0.025831	0.302817	-0.276193	0.028862	0.361890	-0.299553	-0.241219	0.350188	-0.221878	-0.243778	
684	6.8400	0.008412	0.108488	0.157674	0.010520	-0.100902	0.237904	-0.010702	-0.001375	-0.004593	-0.002719	-0.147175	-0.064843	0.204879	0.013487	0.141193	0.154492	0.052139	0.069954	0.090888	0.036172	0.199792	0.093951	-0.079807	0.236807	0.014340	0.007500	-0.000274	0.215464	0.029760	0.102546	0.366838	-0.201947	0.028033	0.302940	-0.276443	0.029810	0.367291	-0.300160	-0.239139	0.356031	-0.222458	-0.241950	
685	6.8500	0.008467	0.108472	0.157571	0.010537	-0.100911	0.237795	-0.010759	-0.001372	-0.004655	-0.002935	-0.147178	-0.064921	0.204835	0.013491	0.141038	0.154474	0.052040	0.069684	0.090941	0.036173	0.199578	0.093970	-0.079824	0.236656	0.014227	0.007489	-0.000372	0.215437	0.029727	0.102435	0.367343	-0.202324	0.030252	0.303139	-0.276669	0.030872	0.372468	-0.300848	-0.236901	0.361706	-0.223122	-0.239976	
686	6.8600	0.008533	0.108458	0.157448	0.010562	-0.100917	0.237685	-0.010836	-0.001376	-0.004728	-0.003159	-0.147186	-0.065003	0.204769	0.013490	0.140926	0.154492	0.051956	0.069429	0.090984	0.036180	0.199362	0.094002	-0.079827	0.236490	0.014099	0.007487	-0.000475	0.215422	0.029684	0.102375	0.367838	-0.202681	0.032458	0.303415	-0.276876	0.032041	0.377445	-0.301602	-0.234489	0.367196	-0.223861	-0.237882	
687	6.8700	0.008604	0.108447	0.157309	0.010590	-0.100919	0.237573	-0.010938	-0.001389	-0.004813	-0.003387	-0.147200	-0.065086	0.204680	0.013485	0.140864	0.154540	0.051898	0.069201	0.091003	0.036183	0.199155	0.094037	-0.079823	0.236322	0.013961	0.007488	-0.000585	0.215414	0.029638	0.102368	0.368313	-0.203012	0.034632	0.303762	-0.277069	0.033302	0.382246	-0.302424	-0.231920	0.372484	-0.224673	-0.235685	
688	6.8800	0.008674	0.108439	0.157161	0.010620	-0.100914	0.237463	-0.011063	-0.001413	-0.004911	-0.003613	-0.147223	-0.065167	0.204575	0.013477	0.140851	0.154609	0.051862	0.069004	0.091001	0.036180	0.198958	0.094062	-0.079818	0.236159	0.013823	0.007479	-0.000699	0.215406	0.029588	0.102403	0.368770	-0.203312	0.036769	0.304173	-0.277256	0.034636	0.386873	-0.303326	-0.229256	0.377558	-0.225559	-0.233399	
689	6.8900	0.008744	0.108432	0.157008	0.010651	-0.100900	0.237358	-0.011194	-0.001446	-0.005015	-0.003832	-0.147253	-0.065243	0.204464	0.013466	0.140879	0.154692	0.051840	0.068829	0.090977	0.036163	0.198762	0.094070	-0.079818	0.236007	0.013702	0.007452	-0.000811	0.215389	0.029524	0.102470	0.369223	-0.203578	0.038870	0.304637	-0.277436	0.036023	0.391322	-0.304311	-0.226558	0.382406	-0.226519	-0.231040	
690	6.9000	0.008814	0.108425	0.156849	0.010683	-0.100881	0.237262	-0.011306	-0.001488	-0.005122	-0.004040	-0.147292	-0.065312	0.204349	0.013448	0.140933	0.154782	0.051820	0.068669	0.090943	0.036130	0.198558	0.094059	-0.079826	0.235864	0.013614	0.007410	-0.000919	0.215354	0.029434	0.102561	0.369689	-0.203809	0.040940	0.305141	-0.277605	0.037452	0.395579	-0.305363	-0.223853	0.387020	-0.227550	-0.228631	
691	6.9100	0.008884	0.108419	0.156685	0.010713	-0.100862	0.237173	-0.011374	-0.001535	-0.005228	-0.004230	-0.147333	-0.065371	0.204226	0.013420	0.141001	0.154876	0.051791	0.068521	0.090906	0.036095	0.198366	0.094032	-0.079838	0.235731	0.013561	0.007358	-0.001022	0.215302	0.029311	0.102672	0.370183	-0.204001	0.042987	0.305670	-0.277758	0.038918	0.399641	-0.306461	-0.221140	0.391391	-0.228644	-0.226198	
692	6.9200	0.008953	0.108417	0.156523	0.010736	-0.100848	0.237085	-0.011387	-0.001579	-0.005336	-0.004399	-0.147375	-0.065423	0.204094	0.013382	0.141080	0.154974	0.051752	0.068386	0.090866	0.036068	0.198199	0.093992	-0.079854	0.235607	0.013538	0.007307	-0.001124	0.215243	0.029170	0.102799	0.370700	-0.204152	0.045018	0.306211	-0.277888	0.040426	0.403506	-0.307584	-0.218396	0.395509	-0.229797	-0.223765	
693	6.9300	0.009016	0.108420	0.156372	0.010746	-0.100841	0.236995	-0.011355	-0.001614	-0.005448	-0.004542	-0.147413	-0.065468	0.203957	0.013341	0.141170	0.155073	0.051713	0.068268	0.090831	0.036052	0.198054	0.093945	-0.079871	0.235491	0.013530	0.007263	-0.001232	0.215197	0.029039	0.102939	0.371210	-0.204265	0.047033	0.306755	-0.277992	0.041975	0.407170	-0.308731	-0.215605	0.399359	-0.231010	-0.221355	
694	6.9400	0.009073	0.108429	0.156238	0.010744	-0.100838	0.236902	-0.011302	-0.001634	-0.005559	-0.004654	-0.147444	-0.065512	0.203818	0.013299	0.141268	0.155169	0.051681	0.068171	0.090797	0.036043	0.197926	0.093897	-0.079891	0.235383	0.013528	0.007229	-0.001350	0.215175	0.028941	0.103089	0.371678	-0.204344	0.049021	0.307297	-0.278065	0.043564	0.410613	-0.309922	-0.212765	0.402944	-0.232278	-0.218988	
695	6.9500	0.009125	0.108446	0.156123	0.010731	-0.100836	0.236810	-0.011250	-0.001641	-0.005661	-0.004732	-0.147468	-0.065556	0.203688	0.013262	0.141371	0.155260	0.051660	0.068099	0.090762	0.036034	0.197815	0.093856	-0.079914	0.235285	0.013539	0.007204	-0.001472	0.215170	0.028879	0.103248	0.372085	-0.204395	0.050962	0.307828	-0.278112	0.045190	0.413795	-0.311178	-0.209916	0.406278	-0.233597	-0.216678	
696	6.9600	0.009173	0.108465	0.156022	0.010712	-0.100833	0.236719	-0.011205	-0.001647	-0.005746	-0.004773	-0.147485	-0.065606	0.203575	0.013231	0.141475	0.155348	0.051641	0.068058	0.090723	0.036022	0.197717	0.093826	-0.079946	0.235196	0.013578	0.007175	-0.001585	0.215173	0.028839	0.103415	0.372429	-0.204423	0.052838	0.308334	-0.278138	0.046835	0.416665	-0.312505	-0.207133	0.409368	-0.234956	-0.214429	
697	6.9700	0.009222	0.108483	0.155930	0.010693	-0.100827	0.236634	-0.011165	-0.001669	-0.005812	-0.004777	-0.147496	-0.065661	0.203486	0.013202	0.141580	0.155438	0.051617	0.068047	0.090684	0.036001	0.197632	0.093805	-0.079995	0.235102	0.013648	0.007132	-0.001678	0.215174	0.028804	0.103587	0.372722	-0.204439	0.054633	0.308804	-0.278153	0.048473	0.419195	-0.313887	-0.204469	0.412210	-0.236347	-0.212240	
698	6.9800	0.009269	0.108499	0.155839	0.010676	-0.100819	0.236557	-0.011119	-0.001708	-0.005863	-0.004744	-0.147502	-0.065723	0.203420	0.013174	0.141684	0.155533	0.051583	0.068060	0.090651	0.035974	0.197573	0.093781	-0.080062	0.234992	0.013736	0.007078	-0.001752	0.215172	0.028760	0.103760	0.372985	-0.204453	0.056335	0.309229	-0.278171	0.050072	0.421393	-0.315295	-0.201926	0.414799	-0.237763	-0.210101	
